<svg width="757" height="226" viewBox="0 0 757 226" fill="none" xmlns="http://www.w3.org/2000/svg">
<path d="M749 167H9V215H749V167Z" fill="#0082FF"/>
<path d="M180.8 9.90078L203.3 80.9008H204.2L226.8 9.90078H248.6L216.5 103.301H191.1L159 9.90078H180.8ZM274.3 9.90078V103.301H254.6V9.90078H274.3ZM347.1 40.1008C346.5 37.9008 345.6 35.9008 344.4 34.2008C343.2 32.5008 341.8 31.0008 340.2 29.8008C338.6 28.6008 336.7 27.7008 334.6 27.0008C332.5 26.4008 330.2 26.0008 327.6 26.0008C322.8 26.0008 318.7 27.2008 315 29.6008C311.4 32.0008 308.6 35.4008 306.6 40.0008C304.6 44.5008 303.6 50.0008 303.6 56.5008C303.6 63.0008 304.6 68.5008 306.6 73.1008C308.6 77.7008 311.4 81.1008 315 83.5008C318.6 85.9008 322.9 87.1008 327.8 87.1008C332.2 87.1008 336.1 86.3008 339.2 84.7008C342.4 83.1008 344.8 80.8008 346.5 77.9008C348.2 75.0008 349 71.5008 349 67.5008L353 68.1008H329V53.4008H368V65.2008C368 73.4008 366.3 80.5008 362.8 86.4008C359.4 92.3008 354.6 96.8008 348.5 100.001C342.4 103.201 335.5 104.701 327.7 104.701C319 104.701 311.3 102.801 304.7 98.9008C298.1 95.0008 292.9 89.5008 289.2 82.3008C285.5 75.1008 283.7 66.6008 283.7 56.8008C283.7 49.2008 284.8 42.5008 287 36.6008C289.2 30.6008 292.3 25.6008 296.3 21.5008C300.3 17.4008 304.9 14.2008 310.2 12.1008C315.5 9.90078 321.2 8.90078 327.3 8.90078C332.6 8.90078 337.5 9.70078 342 11.2008C346.5 12.7008 350.6 14.9008 354.1 17.7008C357.6 20.5008 360.5 23.8008 362.8 27.7008C365 31.5008 366.5 35.8008 367.1 40.4008L347.1 40.1008ZM455.5 9.90078V103.301H438.5L398 44.5008H397.3V103.301H377.6V9.90078H394.9L435.1 68.7008H435.9V9.90078H455.5ZM482.7 103.301H461.6L493.7 9.90078H519.1L551.2 103.301H530.1L506.8 31.2008H506.1L482.7 103.301ZM481.4 66.6008H531.2V82.0008H481.4V66.6008ZM635.2 9.90078V103.301H618.2L577.7 44.5008H577V103.301H557.3V9.90078H574.6L614.8 68.7008H615.6V9.90078H635.2ZM720.8 36.8008C720.4 33.1008 718.9 30.3008 716.1 28.2008C713.3 26.1008 709.6 25.1008 704.9 25.1008C701.7 25.1008 699 25.6008 696.8 26.5008C694.6 27.4008 692.9 28.6008 691.7 30.2008C690.6 31.8008 690 33.6008 690 35.6008C689.9 37.3008 690.3 38.7008 691 40.0008C691.8 41.2008 692.9 42.3008 694.2 43.2008C695.6 44.1008 697.1 44.9008 698.9 45.5008C700.7 46.1008 702.6 46.7008 704.6 47.1008L713 49.1008C717.1 50.0008 720.8 51.2008 724.2 52.8008C727.6 54.3008 730.5 56.2008 733 58.4008C735.5 60.6008 737.4 63.2008 738.8 66.2008C740.2 69.2008 740.9 72.7008 740.9 76.6008C740.9 82.3008 739.4 87.3008 736.5 91.5008C733.6 95.7008 729.5 98.9008 724.1 101.201C718.7 103.501 712.3 104.601 704.7 104.601C697.1 104.601 690.6 103.401 685.1 101.101C679.6 98.8008 675.2 95.4008 672.1 90.8008C669 86.2008 667.4 80.6008 667.2 73.9008H686.2C686.4 77.0008 687.3 79.6008 688.9 81.7008C690.5 83.8008 692.6 85.3008 695.3 86.4008C698 87.4008 701 88.0008 704.4 88.0008C707.8 88.0008 710.6 87.5008 713.1 86.5008C715.6 85.5008 717.5 84.2008 718.9 82.4008C720.3 80.7008 720.9 78.7008 720.9 76.4008C720.9 74.3008 720.3 72.5008 719 71.1008C717.8 69.7008 716 68.5008 713.6 67.4008C711.3 66.4008 708.4 65.5008 705 64.7008L694.9 62.1008C687 60.2008 680.8 57.2008 676.3 53.1008C671.7 49.0008 669.5 43.5008 669.5 36.6008C669.5 30.9008 671 26.0008 674 21.8008C677.1 17.6008 681.3 14.3008 686.6 11.9008C691.9 9.50078 698 8.30078 704.8 8.30078C711.6 8.30078 717.7 9.50078 722.9 11.9008C728.1 14.3008 732.1 17.6008 735 21.8008C737.9 26.0008 739.4 30.9008 739.4 36.5008L720.8 36.8008Z" fill="#FF0000"/>
<path d="M640.301 40.7C648.801 39.9 652.701 35.9 652.101 28.8H644.701V9.5H664.001V25.8C664.001 41.7 656.101 48.2 641.801 48.3L640.301 40.7Z" fill="#FF0000"/>
<path d="M726.301 140.101V124.801H729.501V131.101H736.101V124.801H739.301V140.101H736.101V133.801H729.501V140.101H726.301Z" fill="#010101"/>
<path d="M723.899 130.2H720.599C720.499 129.8 720.399 129.4 720.199 129.1C719.999 128.8 719.799 128.5 719.499 128.2C719.199 128 718.899 127.8 718.499 127.7C718.099 127.6 717.699 127.5 717.299 127.5C716.499 127.5 715.799 127.7 715.199 128.1C714.599 128.5 714.199 129.1 713.799 129.8C713.499 130.5 713.299 131.4 713.299 132.5C713.299 133.6 713.499 134.5 713.799 135.2C714.099 135.9 714.599 136.5 715.199 136.9C715.799 137.3 716.499 137.5 717.199 137.5C717.599 137.5 717.999 137.4 718.399 137.3C718.799 137.2 719.099 137 719.399 136.8C719.699 136.6 719.899 136.3 720.099 136C720.299 135.7 720.399 135.3 720.499 134.9H723.799C723.699 135.6 723.499 136.3 723.199 136.9C722.899 137.5 722.399 138.1 721.899 138.6C721.299 139.1 720.699 139.5 719.899 139.8C719.099 140.1 718.199 140.2 717.299 140.2C715.899 140.2 714.699 139.9 713.599 139.3C712.499 138.7 711.699 137.8 711.099 136.6C710.499 135.4 710.199 134 710.199 132.4C710.199 130.7 710.499 129.3 711.099 128.1C711.699 126.9 712.599 126 713.699 125.4C714.799 124.8 715.999 124.5 717.299 124.5C718.199 124.5 718.999 124.6 719.799 124.9C720.599 125.1 721.199 125.5 721.799 126C722.399 126.5 722.899 127.1 723.199 127.7C723.599 128.5 723.799 129.3 723.899 130.2Z" fill="#010101"/>
<path d="M696.699 140.101V124.801H702.699C703.899 124.801 704.799 125.001 705.699 125.401C706.499 125.801 707.099 126.401 707.599 127.101C707.999 127.801 708.199 128.701 708.199 129.701C708.199 130.701 707.999 131.601 707.499 132.301C707.099 133.001 706.399 133.601 705.599 134.001C704.799 134.401 703.799 134.601 702.599 134.601H698.599V132.001H702.099C702.699 132.001 703.199 131.901 703.599 131.701C703.999 131.501 704.299 131.301 704.499 130.901C704.699 130.601 704.799 130.101 704.799 129.601C704.799 129.101 704.699 128.701 704.499 128.301C704.299 128.001 703.999 127.701 703.599 127.501C703.199 127.301 702.699 127.201 702.099 127.201H699.899V139.801H696.699V140.101ZM704.899 133.201L708.699 140.201H705.099L701.399 133.201H704.899Z" fill="#010101"/>
<path d="M683.602 140.101H680.102L685.402 124.801H689.602L694.902 140.101H691.402L687.602 128.301H687.502L683.602 140.101ZM683.402 134.101H691.602V136.601H683.402V134.101Z" fill="#010101"/>
<path d="M668.102 140.101V124.801H678.402V127.501H671.302V131.101H677.802V133.801H671.302V137.401H678.402V140.101H668.102Z" fill="#010101"/>
<path d="M662.598 129.202C662.498 128.602 662.298 128.102 661.798 127.802C661.298 127.502 660.698 127.302 659.998 127.302C659.498 127.302 658.998 127.402 658.698 127.502C658.298 127.602 658.098 127.802 657.898 128.102C657.698 128.402 657.598 128.702 657.598 129.002C657.598 129.302 657.598 129.502 657.798 129.702C657.898 129.902 658.098 130.102 658.298 130.202C658.498 130.302 658.798 130.502 659.098 130.602C659.398 130.702 659.698 130.802 659.998 130.902L661.398 131.202C662.098 131.302 662.698 131.502 663.198 131.802C663.798 132.002 664.198 132.402 664.598 132.702C664.998 133.102 665.298 133.502 665.498 134.002C665.698 134.502 665.798 135.102 665.898 135.702C665.898 136.602 665.698 137.402 665.198 138.102C664.698 138.802 664.098 139.302 663.198 139.702C662.298 140.102 661.298 140.302 659.998 140.302C658.798 140.302 657.698 140.102 656.798 139.702C655.898 139.302 655.198 138.802 654.698 138.002C654.198 137.302 653.898 136.302 653.898 135.202H656.998C656.998 135.702 657.198 136.102 657.398 136.502C657.698 136.802 657.998 137.102 658.498 137.302C658.898 137.502 659.398 137.602 659.998 137.602C660.498 137.602 660.998 137.502 661.398 137.402C661.798 137.202 662.098 137.002 662.298 136.702C662.498 136.402 662.598 136.102 662.598 135.702C662.598 135.402 662.498 135.102 662.298 134.802C662.098 134.602 661.798 134.402 661.398 134.202C660.998 134.002 660.498 133.902 659.998 133.802L658.298 133.402C656.998 133.102 655.998 132.602 655.298 131.902C654.598 131.202 654.198 130.302 654.198 129.202C654.198 128.302 654.398 127.502 654.898 126.802C655.398 126.102 656.098 125.602 656.998 125.202C657.898 124.802 658.898 124.602 659.998 124.602C661.098 124.602 662.098 124.802 662.998 125.202C663.898 125.602 664.498 126.102 664.998 126.802C665.498 127.502 665.698 128.302 665.698 129.202H662.598Z" fill="#010101"/>
<path d="M641.5 140.101V124.801H651.8V127.501H644.7V131.101H651.2V133.801H644.7V137.401H651.8V140.101H641.5Z" fill="#010101"/>
<path d="M627.699 140.101V124.801H633.699C634.899 124.801 635.799 125.001 636.699 125.401C637.499 125.801 638.099 126.401 638.599 127.101C638.999 127.801 639.199 128.701 639.199 129.701C639.199 130.701 638.999 131.601 638.499 132.301C638.099 133.001 637.399 133.601 636.599 134.001C635.799 134.401 634.799 134.601 633.599 134.601H629.599V132.001H633.099C633.699 132.001 634.199 131.901 634.599 131.701C634.999 131.501 635.299 131.301 635.499 130.901C635.699 130.601 635.799 130.101 635.799 129.601C635.799 129.101 635.699 128.701 635.499 128.301C635.299 128.001 634.999 127.701 634.599 127.501C634.199 127.301 633.699 127.201 633.099 127.201H630.999V139.801H627.699V140.101ZM635.999 133.201L639.799 140.201H636.199L632.499 133.201H635.999Z" fill="#010101"/>
<path d="M613.299 140.401C612.199 140.401 611.299 140.201 610.599 139.801C609.799 139.401 609.199 138.901 608.799 138.301C608.399 137.601 608.199 136.901 608.199 136.101C608.199 135.501 608.299 135.001 608.599 134.501C608.799 134.001 609.199 133.601 609.599 133.201C609.999 132.801 610.499 132.401 611.099 132.001L614.099 130.101C614.499 129.901 614.799 129.601 614.899 129.301C615.099 129.001 615.199 128.701 615.199 128.401C615.199 128.101 615.099 127.801 614.799 127.601C614.599 127.301 614.199 127.201 613.799 127.201C613.499 127.201 613.199 127.301 612.999 127.401C612.799 127.501 612.599 127.701 612.499 127.901C612.399 128.101 612.299 128.301 612.299 128.601C612.299 128.901 612.399 129.201 612.599 129.601C612.799 129.901 612.999 130.301 613.299 130.601C613.599 131.001 613.899 131.401 614.299 131.801L621.499 140.101H618.199L612.199 133.401C611.799 132.901 611.399 132.501 610.999 132.001C610.599 131.501 610.299 131.001 609.999 130.401C609.699 129.801 609.599 129.201 609.599 128.601C609.599 127.901 609.799 127.201 610.099 126.601C610.399 126.001 610.899 125.501 611.599 125.201C612.199 124.901 612.999 124.701 613.799 124.701C614.599 124.701 615.299 124.901 615.899 125.201C616.499 125.501 616.999 126.001 617.299 126.501C617.599 127.001 617.799 127.601 617.799 128.301C617.799 129.001 617.599 129.701 617.299 130.301C616.899 130.901 616.399 131.401 615.799 131.901L612.699 134.101C612.299 134.401 611.999 134.701 611.799 135.001C611.599 135.301 611.499 135.601 611.499 135.901C611.499 136.301 611.599 136.601 611.799 136.901C611.999 137.201 612.199 137.401 612.599 137.601C612.899 137.801 613.299 137.801 613.799 137.801C614.299 137.801 614.899 137.701 615.399 137.401C615.899 137.201 616.399 136.801 616.799 136.301C617.199 135.801 617.599 135.301 617.799 134.701C618.099 134.101 618.199 133.401 618.199 132.601H620.799C620.799 133.501 620.699 134.401 620.499 135.101C620.299 135.801 619.999 136.501 619.599 137.101C619.199 137.701 618.799 138.101 618.399 138.501C618.299 138.601 618.099 138.701 617.999 138.801C617.899 138.901 617.699 139.001 617.599 139.101C616.999 139.601 616.399 139.901 615.699 140.101C614.699 140.201 613.999 140.401 613.299 140.401Z" fill="#010101"/>
<path d="M587.699 124.9H591.299L594.799 131.5H594.899L598.399 124.9H601.999L596.399 134.8V140.2H593.199V134.8L587.699 124.9Z" fill="#010101"/>
<path d="M583.401 129.801C583.301 129.401 583.101 129.101 583.001 128.801C582.801 128.501 582.601 128.301 582.301 128.101C582.001 127.901 581.701 127.701 581.401 127.601C581.101 127.501 580.701 127.401 580.301 127.401C579.501 127.401 578.801 127.601 578.201 128.001C577.601 128.401 577.201 129.001 576.801 129.701C576.501 130.401 576.301 131.301 576.301 132.401C576.301 133.501 576.501 134.401 576.801 135.101C577.101 135.801 577.601 136.401 578.201 136.801C578.801 137.201 579.501 137.401 580.301 137.401C581.001 137.401 581.701 137.301 582.201 137.001C582.701 136.701 583.101 136.401 583.401 135.901C583.701 135.401 583.801 134.901 583.801 134.201L584.501 134.301H580.601V132.001H587.001V133.901C587.001 135.201 586.701 136.401 586.201 137.401C585.601 138.401 584.901 139.101 583.901 139.601C582.901 140.101 581.801 140.401 580.501 140.401C579.101 140.401 577.801 140.101 576.701 139.501C575.601 138.901 574.801 138.001 574.201 136.801C573.601 135.601 573.301 134.201 573.301 132.601C573.301 131.401 573.501 130.301 573.801 129.301C574.201 128.301 574.701 127.501 575.301 126.801C576.001 126.101 576.701 125.601 577.601 125.301C578.501 124.901 579.401 124.801 580.401 124.801C581.301 124.801 582.101 124.901 582.801 125.201C583.501 125.401 584.201 125.801 584.801 126.301C585.401 126.801 585.901 127.301 586.201 127.901C586.601 128.501 586.801 129.201 586.901 130.001H583.401V129.801Z" fill="#010101"/>
<path d="M570.902 132.501C570.902 134.201 570.602 135.601 570.002 136.801C569.402 138.001 568.502 138.901 567.402 139.501C566.302 140.101 565.102 140.401 563.802 140.401C562.402 140.401 561.202 140.101 560.102 139.501C559.002 138.901 558.202 138.001 557.502 136.801C556.902 135.601 556.602 134.201 556.602 132.601C556.602 130.901 556.902 129.501 557.502 128.301C558.102 127.101 559.002 126.201 560.102 125.601C561.202 125.001 562.402 124.701 563.802 124.701C565.102 124.701 566.402 125.001 567.402 125.601C568.502 126.201 569.302 127.101 570.002 128.301C570.602 129.401 570.902 130.801 570.902 132.501ZM567.602 132.501C567.602 131.401 567.402 130.501 567.102 129.801C566.802 129.101 566.302 128.501 565.802 128.101C565.202 127.701 564.502 127.501 563.802 127.501C563.002 127.501 562.302 127.701 561.802 128.101C561.202 128.501 560.802 129.001 560.402 129.801C560.102 130.501 559.902 131.501 559.902 132.501C559.902 133.601 560.102 134.501 560.402 135.201C560.702 135.901 561.202 136.501 561.802 136.901C562.402 137.301 563.102 137.501 563.802 137.501C564.602 137.501 565.302 137.301 565.802 136.901C566.402 136.501 566.802 136.001 567.102 135.201C567.502 134.501 567.602 133.601 567.602 132.501Z" fill="#010101"/>
<path d="M545.5 140.101V124.801H548.7V137.401H555.2V140.101H545.5Z" fill="#010101"/>
<path d="M543.101 132.501C543.101 134.201 542.801 135.601 542.201 136.801C541.601 138.001 540.701 138.901 539.601 139.501C538.501 140.101 537.301 140.401 536.001 140.401C534.601 140.401 533.401 140.101 532.301 139.501C531.201 138.901 530.401 138.001 529.701 136.801C529.101 135.601 528.801 134.201 528.801 132.601C528.801 130.901 529.101 129.501 529.701 128.301C530.301 127.101 531.201 126.201 532.301 125.601C533.401 125.001 534.601 124.701 536.001 124.701C537.301 124.701 538.601 125.001 539.601 125.601C540.701 126.201 541.501 127.101 542.201 128.301C542.801 129.401 543.101 130.801 543.101 132.501ZM539.901 132.501C539.901 131.401 539.701 130.501 539.401 129.801C539.101 129.101 538.601 128.501 538.101 128.101C537.501 127.701 536.801 127.501 536.101 127.501C535.301 127.501 534.601 127.701 534.101 128.101C533.501 128.501 533.101 129.001 532.701 129.801C532.401 130.501 532.201 131.501 532.201 132.501C532.201 133.601 532.401 134.501 532.701 135.201C533.001 135.901 533.501 136.501 534.101 136.901C534.701 137.301 535.401 137.501 536.101 137.501C536.901 137.501 537.601 137.301 538.101 136.901C538.701 136.501 539.101 136.001 539.401 135.201C539.701 134.501 539.901 133.601 539.901 132.501Z" fill="#010101"/>
<path d="M526.399 124.9V140.2H523.599L516.999 130.6H516.899V140.2H513.699V124.9H516.499L523.099 134.5H523.199V124.9H526.399Z" fill="#010101"/>
<path d="M498 140.101V124.801H501.2V131.101H507.8V124.801H511V140.101H507.8V133.801H501.2V140.101H498Z" fill="#010101"/>
<path d="M495.7 130.2H492.4C492.3 129.8 492.2 129.4 492 129.1C491.8 128.8 491.6 128.5 491.3 128.2C491 128 490.7 127.8 490.3 127.7C489.9 127.6 489.5 127.5 489.1 127.5C488.3 127.5 487.6 127.7 487 128.1C486.4 128.5 486 129.1 485.6 129.8C485.3 130.5 485.1 131.4 485.1 132.5C485.1 133.6 485.3 134.5 485.6 135.2C485.9 135.9 486.4 136.5 487 136.9C487.6 137.3 488.3 137.5 489 137.5C489.4 137.5 489.8 137.4 490.2 137.3C490.6 137.2 490.9 137 491.2 136.8C491.5 136.6 491.7 136.3 491.9 136C492.1 135.7 492.2 135.3 492.3 134.9H495.6C495.5 135.6 495.3 136.3 495 136.9C494.7 137.5 494.2 138.1 493.7 138.6C493.1 139.1 492.5 139.5 491.7 139.8C490.9 140.1 490 140.2 489.1 140.2C487.7 140.2 486.5 139.9 485.4 139.3C484.3 138.7 483.5 137.8 482.9 136.6C482.3 135.4 482 134 482 132.4C482 130.7 482.3 129.3 482.9 128.1C483.5 126.9 484.4 126 485.4 125.4C486.5 124.8 487.7 124.5 489 124.5C489.9 124.5 490.7 124.6 491.5 124.9C492.3 125.1 492.9 125.5 493.5 126C494.1 126.5 494.6 127.1 494.9 127.7C495.3 128.5 495.6 129.3 495.7 130.2Z" fill="#010101"/>
<path d="M469.301 140.101V124.801H479.601V127.501H472.501V131.101H479.001V133.801H472.501V137.401H479.601V140.101H469.301Z" fill="#010101"/>
<path d="M454.699 127.501V124.801H467.199V127.501H462.499V140.101H459.299V127.501H454.699Z" fill="#010101"/>
<path d="M448.2 138L448.1 138.8C448 139.5 447.9 140.1 447.7 140.8C447.5 141.5 447.3 142.1 447.1 142.6C446.9 143.1 446.7 143.6 446.6 143.9H444.5C444.6 143.6 444.7 143.2 444.8 142.7C444.9 142.2 445.1 141.6 445.2 140.9C445.3 140.2 445.4 139.6 445.4 138.9V138.1H448.2V138Z" fill="#010101"/>
<path d="M432 140.101V124.801H442.3V127.501H435.2V131.101H441.7V133.801H435.2V137.401H442.3V140.101H432Z" fill="#010101"/>
<path d="M429.598 130.2H426.298C426.198 129.8 426.098 129.4 425.898 129.1C425.698 128.8 425.498 128.5 425.198 128.2C424.898 128 424.598 127.8 424.198 127.7C423.798 127.6 423.398 127.5 422.998 127.5C422.198 127.5 421.498 127.7 420.898 128.1C420.298 128.5 419.898 129.1 419.498 129.8C419.198 130.5 418.998 131.4 418.998 132.5C418.998 133.6 419.198 134.5 419.498 135.2C419.798 135.9 420.298 136.5 420.898 136.9C421.498 137.3 422.198 137.5 422.898 137.5C423.298 137.5 423.698 137.4 424.098 137.3C424.498 137.2 424.798 137 425.098 136.8C425.398 136.6 425.598 136.3 425.798 136C425.998 135.7 426.098 135.3 426.198 134.9H429.498C429.398 135.6 429.198 136.3 428.898 136.9C428.598 137.5 428.098 138.1 427.598 138.6C426.998 139.1 426.398 139.5 425.598 139.8C424.798 140.1 423.898 140.2 422.998 140.2C421.598 140.2 420.398 139.9 419.298 139.3C418.198 138.7 417.398 137.8 416.798 136.6C416.198 135.4 415.898 134 415.898 132.4C415.898 130.7 416.198 129.3 416.798 128.1C417.398 126.9 418.298 126 419.298 125.4C420.398 124.8 421.598 124.5 422.898 124.5C423.798 124.5 424.598 124.6 425.398 124.9C426.198 125.1 426.798 125.5 427.398 126C427.998 126.5 428.498 127.1 428.798 127.7C429.298 128.5 429.498 129.3 429.598 130.2Z" fill="#010101"/>
<path d="M413.501 124.9V140.2H410.701L404.101 130.6H404.001V140.2H400.801V124.9H403.601L410.201 134.5H410.301V124.9H413.501Z" fill="#010101"/>
<path d="M387.898 140.101V124.801H398.198V127.501H391.098V131.101H397.598V133.801H391.098V137.401H398.198V140.101H387.898Z" fill="#010101"/>
<path d="M385.2 124.9V140.2H382V124.9H385.2Z" fill="#010101"/>
<path d="M379.698 130.2H376.398C376.298 129.8 376.198 129.4 375.998 129.1C375.798 128.8 375.598 128.5 375.298 128.2C374.998 128 374.698 127.8 374.298 127.7C373.898 127.6 373.498 127.5 373.098 127.5C372.298 127.5 371.598 127.7 370.998 128.1C370.398 128.5 369.998 129.1 369.598 129.8C369.298 130.5 369.098 131.4 369.098 132.5C369.098 133.6 369.298 134.5 369.598 135.2C369.898 135.9 370.398 136.5 370.998 136.9C371.598 137.3 372.298 137.5 372.998 137.5C373.398 137.5 373.798 137.4 374.198 137.3C374.598 137.2 374.898 137 375.198 136.8C375.498 136.6 375.698 136.3 375.898 136C376.098 135.7 376.198 135.3 376.298 134.9H379.598C379.498 135.6 379.298 136.3 378.998 136.9C378.698 137.5 378.198 138.1 377.598 138.6C376.998 139.1 376.398 139.5 375.598 139.8C374.798 140.1 373.898 140.2 372.998 140.2C371.598 140.2 370.398 139.9 369.298 139.3C368.198 138.7 367.398 137.8 366.798 136.6C366.198 135.4 365.898 134 365.898 132.4C365.898 130.7 366.198 129.3 366.798 128.1C367.398 126.9 368.298 126 369.398 125.4C370.498 124.8 371.698 124.5 372.998 124.5C373.898 124.5 374.698 124.6 375.498 124.9C376.298 125.1 376.898 125.5 377.498 126C378.098 126.5 378.598 127.1 378.898 127.7C379.298 128.5 379.598 129.3 379.698 130.2Z" fill="#010101"/>
<path d="M360.7 129.202C360.6 128.602 360.4 128.102 359.9 127.802C359.4 127.502 358.8 127.302 358.1 127.302C357.6 127.302 357.1 127.402 356.8 127.502C356.4 127.602 356.2 127.802 356 128.102C355.8 128.402 355.7 128.702 355.7 129.002C355.7 129.302 355.7 129.502 355.9 129.702C356 129.902 356.2 130.102 356.4 130.202C356.6 130.302 356.9 130.502 357.2 130.602C357.5 130.702 357.8 130.802 358.1 130.902L359.5 131.202C360.2 131.302 360.8 131.502 361.3 131.802C361.9 132.002 362.3 132.402 362.7 132.702C363.1 133.102 363.4 133.502 363.6 134.002C363.8 134.502 363.9 135.102 364 135.702C364 136.602 363.8 137.402 363.3 138.102C362.8 138.802 362.2 139.302 361.3 139.702C360.4 140.102 359.4 140.302 358.1 140.302C356.9 140.302 355.8 140.102 354.9 139.702C354 139.302 353.3 138.802 352.8 138.002C352.3 137.302 352 136.302 352 135.202H355.1C355.1 135.702 355.3 136.102 355.5 136.502C355.8 136.802 356.1 137.102 356.6 137.302C357 137.502 357.5 137.602 358.1 137.602C358.6 137.602 359.1 137.502 359.5 137.402C359.9 137.202 360.2 137.002 360.4 136.702C360.6 136.402 360.7 136.102 360.7 135.702C360.7 135.402 360.6 135.102 360.4 134.802C360.2 134.602 359.9 134.402 359.5 134.202C359.1 134.002 358.6 133.902 358.1 133.802L356.4 133.402C355.1 133.102 354.1 132.602 353.4 131.902C352.7 131.202 352.3 130.302 352.3 129.202C352.3 128.302 352.5 127.502 353 126.802C353.5 126.102 354.2 125.602 355.1 125.202C356 124.802 357 124.602 358.1 124.602C359.2 124.602 360.2 124.802 361.1 125.202C362 125.602 362.6 126.102 363.1 126.802C363.6 127.502 363.8 128.302 363.8 129.202H360.7Z" fill="#010101"/>
<path d="M333.801 140.101V124.801H339.801C341.001 124.801 341.901 125.001 342.801 125.401C343.601 125.801 344.201 126.401 344.701 127.101C345.101 127.801 345.301 128.701 345.301 129.701C345.301 130.701 345.101 131.601 344.601 132.301C344.201 133.001 343.501 133.601 342.701 134.001C341.901 134.401 340.901 134.601 339.701 134.601H335.701V132.001H339.201C339.801 132.001 340.301 131.901 340.701 131.701C341.101 131.501 341.401 131.301 341.601 130.901C341.801 130.601 341.901 130.101 341.901 129.601C341.901 129.101 341.801 128.701 341.601 128.301C341.401 128.001 341.101 127.701 340.701 127.501C340.301 127.301 339.801 127.201 339.201 127.201H337.001V139.801H333.801V140.101ZM342.001 133.201L345.801 140.201H342.201L338.501 133.201H342.001Z" fill="#010101"/>
<path d="M331.402 132.501C331.402 134.201 331.102 135.601 330.502 136.801C329.902 138.001 329.002 138.901 327.902 139.501C326.802 140.101 325.602 140.401 324.302 140.401C322.902 140.401 321.702 140.101 320.602 139.501C319.502 138.901 318.702 138.001 318.002 136.801C317.402 135.601 317.102 134.201 317.102 132.601C317.102 130.901 317.402 129.501 318.002 128.301C318.602 127.101 319.502 126.201 320.602 125.601C321.702 125.001 322.902 124.701 324.302 124.701C325.602 124.701 326.902 125.001 327.902 125.601C329.002 126.201 329.802 127.101 330.502 128.301C331.102 129.401 331.402 130.801 331.402 132.501ZM328.102 132.501C328.102 131.401 327.902 130.501 327.602 129.801C327.302 129.101 326.802 128.501 326.202 128.101C325.602 127.701 324.902 127.501 324.202 127.501C323.402 127.501 322.702 127.701 322.202 128.101C321.602 128.501 321.202 129.001 320.802 129.801C320.502 130.501 320.302 131.501 320.302 132.501C320.302 133.601 320.502 134.501 320.802 135.201C321.102 135.901 321.602 136.501 322.202 136.901C322.802 137.301 323.502 137.501 324.202 137.501C325.002 137.501 325.702 137.301 326.202 136.901C326.802 136.501 327.202 136.001 327.602 135.201C328.002 134.501 328.102 133.601 328.102 132.501Z" fill="#010101"/>
<path d="M305.102 140.101V124.801H315.202V127.501H308.302V131.101H314.502V133.801H308.302V140.101H305.102Z" fill="#010101"/>
<path d="M297.501 124.9V140.2H294.701L288.101 130.6H288.001V140.2H284.801V124.9H287.601L294.201 134.5H294.301V124.9H297.501Z" fill="#010101"/>
<path d="M282.402 132.501C282.402 134.201 282.102 135.601 281.502 136.801C280.902 138.001 280.002 138.901 278.902 139.501C277.802 140.101 276.602 140.401 275.302 140.401C273.902 140.401 272.702 140.101 271.602 139.501C270.502 138.901 269.702 138.001 269.002 136.801C268.402 135.601 268.102 134.201 268.102 132.601C268.102 130.901 268.402 129.501 269.002 128.301C269.602 127.101 270.502 126.201 271.602 125.601C272.702 125.001 273.902 124.701 275.302 124.701C276.602 124.701 277.902 125.001 278.902 125.601C280.002 126.201 280.802 127.101 281.502 128.301C282.102 129.401 282.402 130.801 282.402 132.501ZM279.102 132.501C279.102 131.401 278.902 130.501 278.602 129.801C278.302 129.101 277.802 128.501 277.302 128.101C276.702 127.701 276.002 127.501 275.302 127.501C274.502 127.501 273.802 127.701 273.302 128.101C272.702 128.501 272.302 129.001 271.902 129.801C271.602 130.501 271.402 131.501 271.402 132.501C271.402 133.601 271.602 134.501 271.902 135.201C272.202 135.901 272.702 136.501 273.302 136.901C273.902 137.301 274.602 137.501 275.302 137.501C276.102 137.501 276.802 137.301 277.302 136.901C277.902 136.501 278.302 136.001 278.602 135.201C278.902 134.501 279.102 133.601 279.102 132.501Z" fill="#010101"/>
<path d="M265.7 124.9V140.2H262.5V124.9H265.7Z" fill="#010101"/>
<path d="M247.898 127.501V124.801H260.398V127.501H255.698V140.101H252.498V127.501H247.898Z" fill="#010101"/>
<path d="M237.199 140.101H233.699L238.999 124.801H243.199L248.499 140.101H244.999L241.199 128.301H241.099L237.199 140.101ZM236.999 134.101H245.199V136.601H236.999V134.101Z" fill="#010101"/>
<path d="M225.599 140.101H220.199V124.801H225.699C227.199 124.801 228.599 125.101 229.699 125.701C230.799 126.301 231.699 127.201 232.299 128.301C232.899 129.401 233.199 130.801 233.199 132.401C233.199 134.001 232.899 135.401 232.299 136.501C231.699 137.601 230.799 138.501 229.699 139.101C228.499 139.801 227.099 140.101 225.599 140.101ZM223.399 137.401H225.399C226.399 137.401 227.199 137.201 227.799 136.901C228.499 136.601 228.899 136.001 229.299 135.301C229.599 134.601 229.799 133.701 229.799 132.501C229.799 131.401 229.599 130.401 229.299 129.701C228.999 129.001 228.499 128.501 227.799 128.101C227.099 127.801 226.299 127.601 225.399 127.601H223.299V137.401H223.399Z" fill="#010101"/>
<path d="M217.501 124.9V140.2H214.701L208.101 130.6H208.001V140.2H204.801V124.9H207.601L214.201 134.5H214.301V124.9H217.501Z" fill="#010101"/>
<path d="M198.798 124.9H201.998V134.8C201.998 135.9 201.698 136.9 201.198 137.7C200.698 138.5 199.898 139.2 198.998 139.7C198.098 140.2 196.898 140.4 195.698 140.4C194.398 140.4 193.298 140.2 192.398 139.7C191.498 139.2 190.698 138.6 190.198 137.7C189.698 136.9 189.398 135.9 189.398 134.8V124.9H192.598V134.5C192.598 135.1 192.698 135.6 192.998 136.1C193.298 136.6 193.598 136.9 194.098 137.2C194.598 137.5 195.098 137.6 195.698 137.6C196.298 137.6 196.898 137.5 197.298 137.2C197.798 136.9 198.098 136.6 198.398 136.1C198.698 135.6 198.798 135.1 198.798 134.5V124.9Z" fill="#010101"/>
<path d="M186.999 132.501C186.999 134.201 186.699 135.601 186.099 136.801C185.499 138.001 184.599 138.901 183.499 139.501C182.399 140.101 181.199 140.401 179.899 140.401C178.499 140.401 177.299 140.101 176.199 139.501C175.099 138.901 174.299 138.001 173.599 136.801C172.999 135.601 172.699 134.201 172.699 132.601C172.699 130.901 172.999 129.501 173.599 128.301C174.199 127.101 175.099 126.201 176.199 125.601C177.299 125.001 178.499 124.701 179.899 124.701C181.199 124.701 182.499 125.001 183.499 125.601C184.599 126.201 185.399 127.101 186.099 128.301C186.699 129.401 186.999 130.801 186.999 132.501ZM183.699 132.501C183.699 131.401 183.499 130.501 183.199 129.801C182.899 129.101 182.399 128.501 181.899 128.101C181.299 127.701 180.599 127.501 179.899 127.501C179.099 127.501 178.399 127.701 177.899 128.101C177.299 128.501 176.899 129.001 176.499 129.801C176.199 130.501 175.999 131.501 175.999 132.501C175.999 133.601 176.199 134.501 176.499 135.201C176.799 135.901 177.299 136.501 177.899 136.901C178.499 137.301 179.199 137.501 179.899 137.501C180.699 137.501 181.399 137.301 181.899 136.901C182.499 136.501 182.899 136.001 183.199 135.201C183.599 134.501 183.699 133.601 183.699 132.501Z" fill="#010101"/>
<path d="M160.699 140.101V124.801H170.799V127.501H163.899V131.101H170.099V133.801H163.899V140.101H160.699Z" fill="#010101"/>
<mask id="mask0_1766_1267" style="mask-type:luminance" maskUnits="userSpaceOnUse" x="9" y="8" width="128" height="145">
<path d="M137 8.60156H9V152.602H137V8.60156Z" fill="white"/>
</mask>
<g mask="url(#mask0_1766_1267)">
<path fill-rule="evenodd" clip-rule="evenodd" d="M85.8016 63.8012C87.4016 66.2012 88.3016 68.9012 88.4016 71.8012L120.802 82.3012C120.102 85.7012 119.002 89.1012 117.502 92.4012L85.1016 81.9012C83.3016 84.2012 81.0016 85.9012 78.3016 86.9012V120.801C74.8016 121.201 71.2016 121.201 67.7016 120.801V86.8012C65.0016 85.8012 62.7016 84.1012 60.9016 81.8012L28.4016 92.4012C26.9016 89.2012 25.8016 85.8012 25.1016 82.3012L57.5016 71.8012C57.6016 68.9012 58.5016 66.2012 60.1016 63.8012L40.1016 36.4012C42.7016 34.0012 45.6016 31.9012 48.7016 30.2012L68.7016 57.6012C71.4016 56.8012 74.4016 56.8012 77.1016 57.6012L97.1016 30.2012C100.202 31.9012 103.102 34.0012 105.702 36.4012L85.8016 63.8012ZM66.9016 81.4012C68.7016 82.6012 70.8016 83.2012 73.0016 83.2012C75.9016 83.2012 78.7016 82.0012 80.7016 80.0012C82.7016 78.0012 83.9016 75.2012 83.9016 72.3012C83.9016 70.1012 83.2016 68.1012 82.1016 66.3012C80.9016 64.5012 79.2016 63.1012 77.2016 62.3012C75.2016 61.5012 73.0016 61.3012 70.9016 61.7012C68.8016 62.1012 66.8016 63.2012 65.3016 64.7012C63.8016 66.2012 62.7016 68.1012 62.3016 70.3012C61.9016 72.4012 62.1016 74.6012 62.9016 76.6012C63.6016 78.6012 65.1016 80.3012 66.9016 81.4012ZM76.9016 73.7012L79.3016 81.2012L73.0016 76.5012L66.6016 81.1012L69.0016 73.6012L62.7016 69.0012H70.6016L73.0016 61.5012L75.4016 69.0012H83.3016L76.9016 73.7012Z" fill="#0082FF"/>
<path fill-rule="evenodd" clip-rule="evenodd" d="M73.0008 50.2012L90.7008 27.0012C79.3008 22.6012 66.7008 22.6012 55.3008 27.0012L73.0008 50.2012Z" fill="#8281FF"/>
<path fill-rule="evenodd" clip-rule="evenodd" d="M51.8016 65.5016L24.2016 75.1016C24.2016 74.2016 24.1016 73.3016 24.1016 72.4016C24.1016 61.2016 28.0016 50.3016 35.1016 41.6016L51.8016 65.5016Z" fill="#8281FF"/>
<path fill-rule="evenodd" clip-rule="evenodd" d="M31.9023 98.7008C38.5023 108.901 48.7023 116.301 60.5023 119.401C60.4023 112.601 60.0023 97.0008 59.9023 90.3008L31.9023 98.7008Z" fill="#8281FF"/>
<path fill-rule="evenodd" clip-rule="evenodd" d="M114.002 98.7012C107.402 108.901 97.2023 116.301 85.4023 119.401C85.4023 116.401 85.5023 111.701 85.7023 106.701C85.8023 100.501 86.0023 94.0012 86.0023 90.2012L114.002 98.7012Z" fill="#8281FF"/>
<path fill-rule="evenodd" clip-rule="evenodd" d="M121.699 75.1016C121.699 74.2016 121.799 73.3016 121.799 72.4016C121.799 61.2016 117.899 50.3016 110.799 41.6016L94.1992 65.5016L121.699 75.1016Z" fill="#8281FF"/>
<path fill-rule="evenodd" clip-rule="evenodd" d="M133.501 8.30078H13.1008H9.30078V12.1008V71.8008C9.30078 84.5008 12.4008 96.9008 18.3008 107.901C24.2008 118.901 32.7008 128.201 43.0008 134.701L68.6008 150.901C70.0008 151.801 71.6008 152.301 73.2008 152.301C74.9008 152.301 76.5008 151.801 77.8008 150.901L103.401 134.701C113.701 128.201 122.201 118.901 128.101 107.901C134.001 96.9008 137.101 84.4008 137.101 71.8008V12.1008V8.30078H133.501ZM130.001 71.5008C130.001 82.9008 127.201 94.2008 121.901 104.101C116.601 114.001 109.001 122.301 99.8008 128.101L74.2008 144.301C74.0008 144.401 73.8008 144.501 73.6008 144.501C73.4008 144.501 73.2008 144.501 73.0008 144.301L47.2008 128.001C38.1008 122.201 30.4008 113.901 25.2008 104.001C19.9008 94.1008 17.1008 82.8008 17.1008 71.4008V15.6008H129.901L130.001 71.5008Z" fill="#8281FF"/>
</g>
<path d="M680.642 201.303C679.328 201.303 678.201 201.043 677.262 200.523C676.338 199.988 675.63 199.266 675.139 198.356C674.648 197.446 674.402 196.421 674.402 195.28C674.402 194.355 674.54 193.488 674.814 192.68C675.103 191.856 675.471 191.069 675.919 190.318C676.367 189.567 676.829 188.859 677.306 188.195C677.378 188.108 677.522 187.913 677.739 187.61C677.97 187.306 678.237 186.945 678.541 186.526C678.858 186.107 679.176 185.681 679.494 185.248C679.812 184.815 680.108 184.432 680.382 184.1H684.131V184.23C683.697 184.75 683.148 185.407 682.484 186.201C681.834 186.981 681.133 187.848 680.382 188.801C679.906 189.408 679.523 189.906 679.234 190.296C678.96 190.686 678.779 190.953 678.692 191.098H679.212C679.472 190.852 679.805 190.628 680.209 190.426C680.628 190.21 681.17 190.101 681.834 190.101C682.802 190.101 683.661 190.325 684.412 190.773C685.178 191.206 685.77 191.82 686.189 192.615C686.622 193.409 686.839 194.341 686.839 195.41C686.839 196.507 686.593 197.504 686.102 198.4C685.626 199.295 684.925 200.003 684.001 200.523C683.091 201.043 681.971 201.303 680.642 201.303ZM680.707 198.898C681.661 198.898 682.412 198.595 682.961 197.988C683.51 197.381 683.784 196.565 683.784 195.54C683.784 194.456 683.502 193.626 682.939 193.048C682.376 192.47 681.625 192.181 680.686 192.181C679.675 192.181 678.887 192.499 678.324 193.135C677.761 193.756 677.479 194.55 677.479 195.518C677.479 196.11 677.595 196.666 677.826 197.186C678.071 197.692 678.432 198.104 678.909 198.421C679.386 198.739 679.985 198.898 680.707 198.898Z" fill="#F7F8FF"/>
<path d="M665.721 201.26C664.637 201.26 663.72 201.108 662.969 200.805C662.218 200.501 661.604 200.104 661.127 199.613C660.651 199.122 660.297 198.602 660.066 198.053C659.835 197.504 659.705 196.991 659.676 196.515H662.817C662.861 196.832 662.991 197.165 663.207 197.511C663.439 197.858 663.771 198.147 664.204 198.378C664.652 198.609 665.194 198.725 665.829 198.725C666.855 198.725 667.606 198.4 668.082 197.75C668.574 197.1 668.819 196.269 668.819 195.258C668.819 194.218 668.552 193.402 668.017 192.81C667.483 192.203 666.739 191.9 665.786 191.9C665.251 191.9 664.804 191.993 664.442 192.181C664.081 192.369 663.785 192.593 663.554 192.853C663.337 193.098 663.171 193.337 663.056 193.568H660.001L660.997 184.1H670.899V186.656H663.511L663.012 190.968H663.532C663.836 190.549 664.233 190.217 664.724 189.971C665.23 189.711 665.894 189.581 666.717 189.581C667.801 189.581 668.74 189.82 669.534 190.296C670.329 190.758 670.942 191.416 671.376 192.268C671.809 193.106 672.026 194.088 672.026 195.215C672.026 196.413 671.773 197.468 671.267 198.378C670.762 199.274 670.032 199.981 669.079 200.501C668.14 201.007 667.021 201.26 665.721 201.26Z" fill="#F7F8FF"/>
<path d="M647.505 201V200.87C647.939 200.35 648.48 199.7 649.13 198.92C649.795 198.14 650.502 197.266 651.254 196.299C651.687 195.75 652.048 195.273 652.337 194.869C652.64 194.45 652.842 194.161 652.944 194.002H652.424C652.178 194.233 651.846 194.457 651.427 194.674C651.008 194.89 650.466 194.999 649.802 194.999C648.834 194.999 647.967 194.775 647.202 194.327C646.451 193.879 645.859 193.265 645.425 192.485C645.006 191.691 644.797 190.759 644.797 189.69C644.797 188.564 645.035 187.56 645.512 186.679C646.003 185.783 646.711 185.082 647.635 184.577C648.574 184.057 649.694 183.797 650.994 183.797C652.337 183.797 653.464 184.064 654.374 184.599C655.298 185.119 656.006 185.834 656.497 186.744C656.988 187.654 657.234 188.679 657.234 189.82C657.234 190.73 657.089 191.597 656.8 192.42C656.526 193.244 656.165 194.031 655.717 194.782C655.269 195.519 654.807 196.226 654.33 196.905C654.258 196.992 654.106 197.187 653.875 197.49C653.659 197.794 653.391 198.155 653.074 198.574C652.77 198.992 652.46 199.419 652.142 199.852C651.824 200.285 651.528 200.668 651.254 201H647.505ZM650.95 192.919C651.961 192.919 652.749 192.608 653.312 191.987C653.875 191.351 654.157 190.55 654.157 189.582C654.157 188.975 654.034 188.419 653.789 187.914C653.557 187.408 653.204 187.004 652.727 186.7C652.25 186.382 651.658 186.224 650.95 186.224C649.997 186.224 649.239 186.52 648.675 187.112C648.126 187.704 647.852 188.52 647.852 189.56C647.852 190.644 648.134 191.474 648.697 192.052C649.275 192.63 650.026 192.919 650.95 192.919Z" fill="#F7F8FF"/>
<path d="M630.895 201V198.551H634.903V189.365H631.241V187.198L632.303 187.133C632.924 187.075 633.444 186.974 633.863 186.83C634.296 186.685 634.643 186.403 634.903 185.985C635.163 185.566 635.365 184.937 635.51 184.1H638.131V198.551H641.815V201H630.895Z" fill="#F7F8FF"/>
<path d="M618.915 201C618.582 200.61 618.315 200.141 618.113 199.592C617.925 199.043 617.831 198.219 617.831 197.122V190.297H616.055V188H617.875V184.75H621.016V188H623.14V190.297H621.038V196.753C621.038 197.909 621.161 198.79 621.406 199.397C621.666 199.989 621.977 200.48 622.338 200.87V201H618.915Z" fill="#F7F8FF"/>
<path d="M608.998 201.326C607.019 201.326 605.517 200.712 604.491 199.484C603.466 198.242 602.953 196.581 602.953 194.501C602.953 192.32 603.488 190.637 604.556 189.452C605.64 188.268 607.128 187.676 609.02 187.676C610.695 187.676 612.017 188.124 612.985 189.019C613.953 189.915 614.53 191.142 614.718 192.702H611.555C611.454 191.836 611.186 191.171 610.753 190.709C610.32 190.232 609.756 189.994 609.063 189.994C608.139 189.994 607.438 190.391 606.961 191.186C606.499 191.966 606.268 193.071 606.268 194.501C606.268 195.931 606.499 197.043 606.961 197.837C607.438 198.617 608.131 199.007 609.041 199.007C609.749 199.007 610.32 198.769 610.753 198.292C611.186 197.816 611.454 197.151 611.555 196.299H614.718C614.516 197.845 613.924 199.072 612.941 199.982C611.974 200.878 610.659 201.326 608.998 201.326Z" fill="#F7F8FF"/>
<path d="M586.727 201V200.87L591.927 184.1H597.17L602.37 200.87V201H598.947L594.7 186.678H594.18L589.89 201H586.727ZM590.778 196.601L591.515 194.045H597.343L598.08 196.601H590.778Z" fill="#F7F8FF"/>
<path d="M573.496 201.325C571.084 201.325 569.206 200.553 567.863 199.007C566.519 197.462 565.848 195.309 565.848 192.55C565.848 189.806 566.512 187.661 567.841 186.115C569.17 184.555 571.048 183.775 573.474 183.775C574.933 183.775 576.183 184.05 577.223 184.599C578.263 185.133 579.072 185.884 579.649 186.852C580.242 187.82 580.595 188.939 580.711 190.21H577.374C577.259 188.997 576.854 188.044 576.161 187.35C575.482 186.657 574.594 186.31 573.496 186.31C572.109 186.31 571.062 186.859 570.354 187.957C569.647 189.04 569.293 190.579 569.293 192.572C569.293 194.623 569.654 196.176 570.376 197.23C571.113 198.27 572.145 198.79 573.474 198.79C574.63 198.79 575.54 198.429 576.204 197.707C576.883 196.985 577.273 196.046 577.374 194.89H580.711C580.595 196.147 580.242 197.267 579.649 198.249C579.072 199.217 578.263 199.975 577.223 200.524C576.197 201.058 574.955 201.325 573.496 201.325Z" fill="#F7F8FF"/>
<path d="M556.21 201.304C554.65 201.304 553.321 200.935 552.223 200.199C551.14 199.462 550.309 198.436 549.732 197.122C549.168 195.793 548.887 194.255 548.887 192.507C548.887 190.73 549.176 189.192 549.753 187.892C550.346 186.592 551.22 185.588 552.375 184.88C553.531 184.158 554.961 183.797 556.665 183.797C558.11 183.797 559.323 184.05 560.305 184.555C561.302 185.046 562.082 185.74 562.645 186.635C563.208 187.516 563.57 188.549 563.728 189.734H560.522C560.348 188.636 559.929 187.798 559.265 187.22C558.615 186.628 557.727 186.332 556.6 186.332C555.127 186.332 554.029 186.874 553.307 187.957C552.585 189.04 552.223 190.557 552.223 192.507C552.223 194.529 552.599 196.089 553.35 197.187C554.116 198.27 555.228 198.812 556.687 198.812C557.929 198.812 558.882 198.451 559.547 197.729C560.226 197.006 560.601 196.017 560.673 194.76H555.733V192.312H563.75V201H561.302V199.007H560.782C560.478 199.614 559.973 200.148 559.265 200.61C558.557 201.072 557.539 201.304 556.21 201.304Z" fill="#F7F8FF"/>
<path d="M540.218 201.325C537.806 201.325 536.022 200.696 534.866 199.44C533.711 198.168 533.133 196.356 533.133 194.001V184.1H536.491V193.958C536.491 195.446 536.773 196.587 537.336 197.381C537.914 198.176 538.889 198.573 540.261 198.573C541.648 198.573 542.623 198.176 543.186 197.381C543.749 196.587 544.031 195.446 544.031 193.958V184.1H547.324V194.001C547.324 196.356 546.747 198.168 545.591 199.44C544.436 200.696 542.644 201.325 540.218 201.325Z" fill="#F7F8FF"/>
<path d="M520.521 201V190.296H518.68V188H520.521V187.198C520.521 186.476 520.644 185.847 520.89 185.313C521.15 184.779 521.576 184.367 522.168 184.078C522.775 183.775 523.598 183.623 524.638 183.623C525.028 183.623 525.404 183.645 525.765 183.688V185.941C525.577 185.898 525.339 185.876 525.05 185.876C524.515 185.876 524.147 185.992 523.945 186.223C523.742 186.454 523.641 186.815 523.641 187.306V188H525.765V190.296H523.641V201H520.521Z" fill="#F7F8FF"/>
<path d="M511.41 201.326C509.301 201.326 507.727 200.712 506.687 199.484C505.661 198.242 505.148 196.581 505.148 194.501C505.148 192.421 505.661 190.767 506.687 189.539C507.727 188.297 509.301 187.676 511.41 187.676C513.519 187.676 515.093 188.297 516.133 189.539C517.173 190.767 517.693 192.421 517.693 194.501C517.693 196.581 517.173 198.242 516.133 199.484C515.093 200.712 513.519 201.326 511.41 201.326ZM511.41 199.094C512.436 199.094 513.18 198.704 513.642 197.924C514.118 197.144 514.357 196.003 514.357 194.501C514.357 192.999 514.118 191.857 513.642 191.077C513.18 190.297 512.436 189.907 511.41 189.907C510.399 189.907 509.655 190.297 509.178 191.077C508.702 191.857 508.463 192.999 508.463 194.501C508.463 196.003 508.702 197.144 509.178 197.924C509.655 198.704 510.399 199.094 511.41 199.094Z" fill="#F7F8FF"/>
<path d="M491.782 201.281C490.699 201.281 489.753 201.13 488.944 200.826C488.149 200.508 487.485 200.09 486.951 199.57C486.431 199.035 486.041 198.443 485.781 197.793C485.521 197.143 485.391 196.478 485.391 195.8H488.532C488.619 196.594 488.93 197.287 489.464 197.88C490.013 198.457 490.8 198.746 491.826 198.746C492.793 198.746 493.516 198.486 493.992 197.966C494.483 197.432 494.729 196.789 494.729 196.038C494.729 195.085 494.361 194.341 493.624 193.806C492.887 193.272 491.883 193.005 490.612 193.005H489.897V190.73L491.891 188.585C492.151 188.31 492.411 188.057 492.671 187.826C492.931 187.581 493.205 187.357 493.494 187.155V186.635H486.322V184.1H497.199V186.765L493.277 190.665V191.185C494.751 191.416 495.892 191.936 496.701 192.745C497.524 193.539 497.936 194.608 497.936 195.951C497.936 197.02 497.683 197.952 497.177 198.746C496.672 199.541 495.957 200.162 495.032 200.61C494.108 201.057 493.025 201.281 491.782 201.281Z" fill="#F7F8FF"/>
<path d="M473.393 201.326C472.006 201.326 470.894 201.102 470.056 200.654C469.219 200.206 468.597 199.636 468.193 198.942C467.803 198.249 467.586 197.549 467.543 196.841H470.598C470.67 197.231 470.822 197.599 471.053 197.946C471.299 198.278 471.624 198.545 472.028 198.747C472.432 198.935 472.938 199.029 473.545 199.029C474.252 199.029 474.772 198.899 475.105 198.639C475.437 198.379 475.603 198.04 475.603 197.621C475.603 197.245 475.451 196.927 475.148 196.667C474.859 196.407 474.397 196.169 473.761 195.952L472.201 195.432C471.465 195.172 470.786 194.891 470.165 194.587C469.558 194.27 469.067 193.865 468.691 193.374C468.33 192.883 468.15 192.255 468.15 191.489C468.15 190.348 468.576 189.431 469.428 188.737C470.295 188.03 471.501 187.676 473.046 187.676C474.173 187.676 475.097 187.856 475.82 188.217C476.542 188.564 477.084 189.041 477.445 189.647C477.82 190.24 478.037 190.904 478.095 191.641H475.148C475.076 191.106 474.859 190.68 474.498 190.362C474.137 190.045 473.617 189.886 472.938 189.886C472.346 189.886 471.898 190.009 471.595 190.254C471.291 190.485 471.14 190.803 471.14 191.207C471.14 191.612 471.291 191.951 471.595 192.226C471.912 192.486 472.396 192.724 473.046 192.941L474.585 193.439C475.321 193.67 475.993 193.945 476.6 194.262C477.221 194.566 477.705 194.963 478.051 195.454C478.412 195.945 478.593 196.581 478.593 197.361C478.593 198.545 478.145 199.506 477.25 200.242C476.369 200.965 475.083 201.326 473.393 201.326Z" fill="#F7F8FF"/>
<path d="M458.148 203.168V203.038L464.193 183.668H466.815V183.798L460.77 203.168H458.148Z" fill="#F7F8FF"/>
<path d="M449.256 201.325C447.782 201.325 446.684 200.87 445.962 199.96C445.24 199.036 444.879 197.808 444.879 196.277V188H448.086V195.713C448.086 196.652 448.252 197.382 448.584 197.902C448.931 198.422 449.479 198.682 450.231 198.682C451.141 198.682 451.841 198.328 452.332 197.62C452.823 196.912 453.069 196.046 453.069 195.02V188H456.276V201H453.394V199.05H452.874C452.657 199.714 452.253 200.263 451.661 200.697C451.083 201.116 450.281 201.325 449.256 201.325Z" fill="#F7F8FF"/>
<path d="M435.104 201.13C434.469 201.13 433.978 200.957 433.631 200.61C433.299 200.249 433.133 199.78 433.133 199.202C433.133 198.595 433.299 198.119 433.631 197.772C433.978 197.425 434.469 197.252 435.104 197.252C435.74 197.252 436.217 197.425 436.534 197.772C436.867 198.119 437.033 198.595 437.033 199.202C437.033 199.78 436.867 200.249 436.534 200.61C436.217 200.957 435.74 201.13 435.104 201.13Z" fill="#F7F8FF"/>
<path d="M423.233 201.283C422.063 201.283 421.096 200.994 420.33 200.416C419.564 199.839 418.987 199.037 418.597 198.011C418.207 196.986 418.012 195.809 418.012 194.48C418.012 193.122 418.207 191.937 418.597 190.926C418.987 189.915 419.564 189.128 420.33 188.565C421.11 188.001 422.071 187.72 423.212 187.72C424.078 187.72 424.779 187.879 425.313 188.196C425.862 188.514 426.296 188.94 426.613 189.475H427.133V183.668H430.34V201.001H427.393V199.311H426.873C426.584 199.846 426.144 200.308 425.552 200.698C424.974 201.088 424.201 201.283 423.233 201.283ZM424.078 198.943C425.003 198.943 425.74 198.546 426.288 197.751C426.852 196.942 427.133 195.859 427.133 194.501C427.133 193.144 426.852 192.067 426.288 191.273C425.74 190.464 425.003 190.06 424.078 190.06C423.212 190.06 422.54 190.435 422.063 191.186C421.587 191.937 421.348 193.042 421.348 194.501C421.348 195.96 421.587 197.065 422.063 197.816C422.54 198.567 423.212 198.943 424.078 198.943Z" fill="#F7F8FF"/>
<path d="M412.36 201C412.028 200.61 411.761 200.141 411.558 199.592C411.371 199.043 411.277 198.219 411.277 197.122V190.297H409.5V188H411.32V184.75H414.462V188H416.585V190.297H414.483V196.753C414.483 197.909 414.606 198.79 414.852 199.397C415.112 199.989 415.422 200.48 415.783 200.87V201H412.36Z" fill="#F7F8FF"/>
<path d="M403.034 201.326C401.647 201.326 400.535 201.102 399.697 200.654C398.859 200.206 398.238 199.636 397.834 198.942C397.444 198.249 397.227 197.549 397.184 196.841H400.239C400.311 197.231 400.462 197.599 400.694 197.946C400.939 198.278 401.264 198.545 401.669 198.747C402.073 198.935 402.579 199.029 403.185 199.029C403.893 199.029 404.413 198.899 404.745 198.639C405.077 198.379 405.244 198.04 405.244 197.621C405.244 197.245 405.092 196.927 404.789 196.667C404.5 196.407 404.038 196.169 403.402 195.952L401.842 195.432C401.105 195.172 400.426 194.891 399.805 194.587C399.199 194.27 398.707 193.865 398.332 193.374C397.971 192.883 397.79 192.255 397.79 191.489C397.79 190.348 398.216 189.431 399.069 188.737C399.935 188.03 401.141 187.676 402.687 187.676C403.814 187.676 404.738 187.856 405.46 188.217C406.182 188.564 406.724 189.041 407.085 189.647C407.461 190.24 407.677 190.904 407.735 191.641H404.789C404.716 191.106 404.5 190.68 404.139 190.362C403.778 190.045 403.258 189.886 402.579 189.886C401.986 189.886 401.539 190.009 401.235 190.254C400.932 190.485 400.78 190.803 400.78 191.207C400.78 191.612 400.932 191.951 401.235 192.226C401.553 192.486 402.037 192.724 402.687 192.941L404.225 193.439C404.962 193.67 405.634 193.945 406.24 194.262C406.861 194.566 407.345 194.963 407.692 195.454C408.053 195.945 408.234 196.581 408.234 197.361C408.234 198.545 407.786 199.506 406.89 200.242C406.009 200.965 404.724 201.326 403.034 201.326Z" fill="#F7F8FF"/>
<path d="M384.586 201V184.1H395.918V186.743H387.879V190.751H394.119V193.221H387.879V198.356H396.048V201H384.586Z" fill="#F7F8FF"/>
<path d="M370.957 195.606V192.963H376.547V195.606H370.957Z" fill="#F7F8FF"/>
<path d="M356.793 204.9V204.77C357.385 203.889 357.927 202.906 358.418 201.823C358.909 200.754 359.299 199.606 359.588 198.378C359.891 197.15 360.043 195.857 360.043 194.5C360.043 193.142 359.891 191.849 359.588 190.621C359.299 189.393 358.909 188.245 358.418 187.176C357.927 186.093 357.385 185.111 356.793 184.23V184.1H359.87C360.447 184.937 360.967 185.891 361.43 186.96C361.906 188.014 362.289 189.177 362.578 190.448C362.881 191.705 363.033 193.055 363.033 194.5C363.033 195.944 362.881 197.302 362.578 198.573C362.289 199.83 361.906 200.985 361.43 202.04C360.967 203.109 360.447 204.062 359.87 204.9H356.793Z" fill="#F7F8FF"/>
<path d="M345.163 205.333V205.268C345.538 204.662 345.943 203.954 346.376 203.145C346.809 202.351 347.192 201.578 347.524 200.827L342.996 188.13V188H346.181L347.806 192.55C347.994 193.113 348.182 193.713 348.369 194.348C348.572 194.984 348.774 195.778 348.976 196.732H349.496C349.698 195.778 349.893 194.984 350.081 194.348C350.283 193.713 350.486 193.113 350.688 192.55L352.313 188H355.303V188.13L351.208 199.375C350.702 200.762 350.211 201.961 349.734 202.972C349.258 203.983 348.853 204.77 348.521 205.333H345.163Z" fill="#F7F8FF"/>
<path d="M337.864 201C337.532 200.61 337.264 200.141 337.062 199.592C336.874 199.043 336.781 198.219 336.781 197.122V190.297H335.004V188H336.824V184.75H339.966V188H342.089V190.297H339.987V196.753C339.987 197.909 340.11 198.79 340.356 199.397C340.616 199.989 340.926 200.48 341.287 200.87V201H337.864Z" fill="#F7F8FF"/>
<path d="M329.474 201V188H332.681V201H329.474ZM331.077 186.419C330.5 186.419 330.059 186.267 329.756 185.964C329.452 185.646 329.301 185.241 329.301 184.75C329.301 184.259 329.452 183.862 329.756 183.559C330.059 183.241 330.5 183.082 331.077 183.082C331.655 183.082 332.096 183.241 332.399 183.559C332.702 183.862 332.854 184.259 332.854 184.75C332.854 185.241 332.702 185.646 332.399 185.964C332.096 186.267 331.655 186.419 331.077 186.419Z" fill="#F7F8FF"/>
<path d="M321.987 201.326C320.6 201.326 319.488 201.102 318.65 200.654C317.812 200.206 317.191 199.636 316.787 198.942C316.397 198.249 316.18 197.549 316.137 196.841H319.192C319.264 197.231 319.416 197.599 319.647 197.946C319.892 198.278 320.217 198.545 320.622 198.747C321.026 198.935 321.532 199.029 322.138 199.029C322.846 199.029 323.366 198.899 323.698 198.639C324.031 198.379 324.197 198.04 324.197 197.621C324.197 197.245 324.045 196.927 323.742 196.667C323.453 196.407 322.991 196.169 322.355 195.952L320.795 195.432C320.058 195.172 319.379 194.891 318.758 194.587C318.152 194.27 317.661 193.865 317.285 193.374C316.924 192.883 316.743 192.255 316.743 191.489C316.743 190.348 317.169 189.431 318.022 188.737C318.888 188.03 320.094 187.676 321.64 187.676C322.767 187.676 323.691 187.856 324.413 188.217C325.136 188.564 325.677 189.041 326.038 189.647C326.414 190.24 326.631 190.904 326.688 191.641H323.742C323.669 191.106 323.453 190.68 323.092 190.362C322.731 190.045 322.211 189.886 321.532 189.886C320.939 189.886 320.492 190.009 320.188 190.254C319.885 190.485 319.733 190.803 319.733 191.207C319.733 191.612 319.885 191.951 320.188 192.226C320.506 192.486 320.99 192.724 321.64 192.941L323.178 193.439C323.915 193.67 324.587 193.945 325.193 194.262C325.814 194.566 326.298 194.963 326.645 195.454C327.006 195.945 327.187 196.581 327.187 197.361C327.187 198.545 326.739 199.506 325.843 200.242C324.962 200.965 323.677 201.326 321.987 201.326Z" fill="#F7F8FF"/>
<path d="M307.363 201.001V188.001H310.288V190.341H310.808C310.895 189.922 311.054 189.525 311.285 189.149C311.516 188.774 311.877 188.471 312.368 188.239C312.859 187.994 313.517 187.871 314.34 187.871H314.968V190.796H314.102C312.859 190.796 311.957 191.114 311.393 191.749C310.844 192.385 310.57 193.346 310.57 194.631V201.001H307.363Z" fill="#F7F8FF"/>
<path d="M299.159 201.326C297.152 201.326 295.62 200.712 294.566 199.484C293.512 198.242 292.984 196.574 292.984 194.479C292.984 193.078 293.215 191.872 293.678 190.861C294.154 189.85 294.848 189.07 295.758 188.521C296.682 187.957 297.802 187.676 299.116 187.676C301.023 187.676 302.474 188.261 303.471 189.431C304.482 190.586 304.988 192.291 304.988 194.544V195.259H296.104C296.177 196.415 296.473 197.332 296.993 198.011C297.513 198.675 298.235 199.007 299.159 199.007C299.882 199.007 300.459 198.798 300.893 198.379C301.326 197.96 301.622 197.447 301.781 196.841H304.836C304.692 197.664 304.395 198.415 303.948 199.094C303.5 199.759 302.879 200.3 302.084 200.719C301.304 201.124 300.329 201.326 299.159 201.326ZM296.126 193.201H301.868C301.81 192.146 301.543 191.33 301.066 190.752C300.604 190.175 299.947 189.886 299.094 189.886C298.242 189.886 297.563 190.167 297.058 190.731C296.552 191.28 296.242 192.103 296.126 193.201Z" fill="#F7F8FF"/>
<path d="M283.124 201L279.332 188.13V188H282.56L285.485 198.378H286.005L288.93 188H291.899V188.13L288.107 201H283.124Z" fill="#F7F8FF"/>
<path d="M274.146 201V188H277.353V201H274.146ZM275.749 186.419C275.172 186.419 274.731 186.267 274.428 185.964C274.124 185.646 273.973 185.241 273.973 184.75C273.973 184.259 274.124 183.862 274.428 183.559C274.731 183.241 275.172 183.082 275.749 183.082C276.327 183.082 276.768 183.241 277.071 183.559C277.374 183.862 277.526 184.259 277.526 184.75C277.526 185.241 277.374 185.646 277.071 185.964C276.768 186.267 276.327 186.419 275.749 186.419Z" fill="#F7F8FF"/>
<path d="M259.598 201.001V188.001H262.544V189.951H263.064C263.324 189.286 263.729 188.745 264.278 188.326C264.841 187.892 265.635 187.676 266.661 187.676C268.134 187.676 269.225 188.138 269.933 189.062C270.64 189.972 270.994 191.193 270.994 192.724V201.001H267.788V193.287C267.788 192.334 267.614 191.605 267.268 191.099C266.935 190.579 266.394 190.319 265.643 190.319C264.747 190.319 264.047 190.673 263.541 191.381C263.05 192.074 262.804 192.941 262.804 193.981V201.001H259.598Z" fill="#F7F8FF"/>
<path d="M249.315 201.325C246.903 201.325 245.119 200.696 243.964 199.44C242.808 198.168 242.23 196.356 242.23 194.001V184.1H245.589V193.958C245.589 195.446 245.87 196.587 246.434 197.381C247.012 198.176 247.987 198.573 249.359 198.573C250.745 198.573 251.72 198.176 252.284 197.381C252.847 196.587 253.129 195.446 253.129 193.958V184.1H256.422V194.001C256.422 196.356 255.844 198.168 254.689 199.44C253.533 200.696 251.742 201.325 249.315 201.325Z" fill="#F7F8FF"/>
<path d="M228.952 201.326C226.945 201.326 225.413 200.712 224.359 199.484C223.305 198.242 222.777 196.574 222.777 194.479C222.777 193.078 223.008 191.872 223.471 190.861C223.947 189.85 224.641 189.07 225.551 188.521C226.475 187.957 227.595 187.676 228.909 187.676C230.816 187.676 232.267 188.261 233.264 189.431C234.275 190.586 234.781 192.291 234.781 194.544V195.259H225.897C225.97 196.415 226.266 197.332 226.786 198.011C227.306 198.675 228.028 199.007 228.952 199.007C229.675 199.007 230.252 198.798 230.686 198.379C231.119 197.96 231.415 197.447 231.574 196.841H234.629C234.485 197.664 234.188 198.415 233.741 199.094C233.293 199.759 232.672 200.3 231.877 200.719C231.097 201.124 230.122 201.326 228.952 201.326ZM225.919 193.201H231.661C231.603 192.146 231.336 191.33 230.859 190.752C230.397 190.175 229.74 189.886 228.887 189.886C228.035 189.886 227.356 190.167 226.851 190.731C226.345 191.28 226.035 192.103 225.919 193.201Z" fill="#F7F8FF"/>
<path d="M215.974 201.283C215.006 201.283 214.226 201.088 213.634 200.698C213.056 200.308 212.623 199.846 212.334 199.311H211.814V201.001H208.867V183.668H212.074V189.475H212.594C212.912 188.94 213.345 188.514 213.894 188.196C214.443 187.879 215.143 187.72 215.996 187.72C217.137 187.72 218.09 188.001 218.856 188.565C219.636 189.128 220.221 189.915 220.611 190.926C221.001 191.937 221.196 193.122 221.196 194.48C221.196 195.809 221.001 196.986 220.611 198.011C220.221 199.037 219.643 199.839 218.877 200.416C218.112 200.994 217.144 201.283 215.974 201.283ZM215.129 198.943C215.996 198.943 216.667 198.567 217.144 197.816C217.621 197.065 217.859 195.96 217.859 194.501C217.859 193.042 217.621 191.937 217.144 191.186C216.667 190.435 215.996 190.06 215.129 190.06C214.19 190.06 213.446 190.464 212.897 191.273C212.348 192.067 212.074 193.144 212.074 194.501C212.074 195.859 212.348 196.942 212.897 197.751C213.446 198.546 214.19 198.943 215.129 198.943Z" fill="#F7F8FF"/>
<path d="M194.941 201.326C192.832 201.326 191.258 200.712 190.218 199.484C189.192 198.242 188.68 196.581 188.68 194.501C188.68 192.421 189.192 190.767 190.218 189.539C191.258 188.297 192.832 187.676 194.941 187.676C197.05 187.676 198.625 188.297 199.665 189.539C200.705 190.767 201.225 192.421 201.225 194.501C201.225 196.581 200.705 198.242 199.665 199.484C198.625 200.712 197.05 201.326 194.941 201.326ZM194.941 199.094C195.967 199.094 196.711 198.704 197.173 197.924C197.65 197.144 197.888 196.003 197.888 194.501C197.888 192.999 197.65 191.857 197.173 191.077C196.711 190.297 195.967 189.907 194.941 189.907C193.93 189.907 193.186 190.297 192.71 191.077C192.233 191.857 191.995 192.999 191.995 194.501C191.995 196.003 192.233 197.144 192.71 197.924C193.186 198.704 193.93 199.094 194.941 199.094Z" fill="#F7F8FF"/>
<path d="M183.008 201C182.676 200.61 182.409 200.141 182.207 199.592C182.019 199.043 181.925 198.219 181.925 197.122V190.297H180.148V188H181.968V184.75H185.11V188H187.233V190.297H185.132V196.753C185.132 197.909 185.255 198.79 185.5 199.397C185.76 199.989 186.071 200.48 186.432 200.87V201H183.008Z" fill="#F7F8FF"/>
<path d="M165.519 201.283C164.349 201.283 163.381 200.994 162.615 200.416C161.85 199.839 161.272 199.037 160.882 198.011C160.492 196.986 160.297 195.809 160.297 194.48C160.297 193.122 160.492 191.937 160.882 190.926C161.272 189.915 161.85 189.128 162.615 188.565C163.395 188.001 164.356 187.72 165.497 187.72C166.364 187.72 167.064 187.879 167.599 188.196C168.147 188.514 168.581 188.94 168.899 189.475H169.419V183.668H172.625V201.001H169.679V199.311H169.159C168.87 199.846 168.429 200.308 167.837 200.698C167.259 201.088 166.486 201.283 165.519 201.283ZM166.364 198.943C167.288 198.943 168.025 198.546 168.574 197.751C169.137 196.942 169.419 195.859 169.419 194.501C169.419 193.144 169.137 192.067 168.574 191.273C168.025 190.464 167.288 190.06 166.364 190.06C165.497 190.06 164.825 190.435 164.349 191.186C163.872 191.937 163.634 193.042 163.634 194.501C163.634 195.96 163.872 197.065 164.349 197.816C164.825 198.567 165.497 198.943 166.364 198.943Z" fill="#F7F8FF"/>
<path d="M152.96 201.326C150.952 201.326 149.421 200.712 148.367 199.484C147.312 198.242 146.785 196.574 146.785 194.479C146.785 193.078 147.016 191.872 147.478 190.861C147.955 189.85 148.648 189.07 149.558 188.521C150.483 187.957 151.602 187.676 152.917 187.676C154.823 187.676 156.275 188.261 157.272 189.431C158.283 190.586 158.788 192.291 158.788 194.544V195.259H149.905C149.977 196.415 150.273 197.332 150.793 198.011C151.313 198.675 152.036 199.007 152.96 199.007C153.682 199.007 154.26 198.798 154.693 198.379C155.127 197.96 155.423 197.447 155.582 196.841H158.637C158.492 197.664 158.196 198.415 157.748 199.094C157.301 199.759 156.68 200.3 155.885 200.719C155.105 201.124 154.13 201.326 152.96 201.326ZM149.927 193.201H155.668C155.611 192.146 155.343 191.33 154.867 190.752C154.405 190.175 153.747 189.886 152.895 189.886C152.043 189.886 151.364 190.167 150.858 190.731C150.353 191.28 150.042 192.103 149.927 193.201Z" fill="#F7F8FF"/>
<path d="M125.766 201.001V188.001H128.712V189.951H129.232C129.478 189.301 129.868 188.759 130.402 188.326C130.951 187.892 131.717 187.676 132.699 187.676C133.595 187.676 134.338 187.878 134.931 188.282C135.537 188.687 135.992 189.243 136.296 189.951H136.816C137.076 189.286 137.487 188.745 138.051 188.326C138.614 187.892 139.372 187.676 140.326 187.676C141.741 187.676 142.788 188.138 143.467 189.062C144.146 189.972 144.486 191.193 144.486 192.724V201.001H141.279V193.287C141.279 192.349 141.12 191.619 140.802 191.099C140.499 190.579 140.001 190.319 139.307 190.319C138.47 190.319 137.827 190.673 137.379 191.381C136.946 192.089 136.729 192.955 136.729 193.981V201.001H133.522V193.287C133.522 192.349 133.363 191.619 133.046 191.099C132.742 190.579 132.251 190.319 131.572 190.319C130.735 190.319 130.092 190.673 129.644 191.381C129.196 192.089 128.972 192.955 128.972 193.981V201.001H125.766Z" fill="#F7F8FF"/>
<path d="M117.538 201.326C115.531 201.326 113.999 200.712 112.945 199.484C111.891 198.242 111.363 196.574 111.363 194.479C111.363 193.078 111.594 191.872 112.057 190.861C112.533 189.85 113.227 189.07 114.137 188.521C115.061 187.957 116.181 187.676 117.495 187.676C119.402 187.676 120.853 188.261 121.85 189.431C122.861 190.586 123.367 192.291 123.367 194.544V195.259H114.483C114.556 196.415 114.852 197.332 115.372 198.011C115.892 198.675 116.614 199.007 117.538 199.007C118.261 199.007 118.838 198.798 119.272 198.379C119.705 197.96 120.001 197.447 120.16 196.841H123.215C123.071 197.664 122.774 198.415 122.327 199.094C121.879 199.759 121.258 200.3 120.463 200.719C119.683 201.124 118.708 201.326 117.538 201.326ZM114.505 193.201H120.247C120.189 192.146 119.922 191.33 119.445 190.752C118.983 190.175 118.326 189.886 117.473 189.886C116.621 189.886 115.942 190.167 115.437 190.731C114.931 191.28 114.621 192.103 114.505 193.201Z" fill="#F7F8FF"/>
<path d="M104.007 201.326C101.999 201.326 100.468 200.712 99.4137 199.484C98.3593 198.242 97.832 196.574 97.832 194.479C97.832 193.078 98.0631 191.872 98.5254 190.861C99.002 189.85 99.6954 189.07 100.605 188.521C101.53 187.957 102.649 187.676 103.964 187.676C105.87 187.676 107.322 188.261 108.319 189.431C109.33 190.586 109.835 192.291 109.835 194.544V195.259H100.952C101.024 196.415 101.32 197.332 101.84 198.011C102.36 198.675 103.083 199.007 104.007 199.007C104.729 199.007 105.307 198.798 105.74 198.379C106.174 197.96 106.47 197.447 106.629 196.841H109.684C109.539 197.664 109.243 198.415 108.795 199.094C108.348 199.759 107.726 200.3 106.932 200.719C106.152 201.124 105.177 201.326 104.007 201.326ZM100.974 193.201H106.715C106.658 192.146 106.39 191.33 105.914 190.752C105.451 190.175 104.794 189.886 103.942 189.886C103.09 189.886 102.411 190.167 101.905 190.731C101.4 191.28 101.089 192.103 100.974 193.201Z" fill="#F7F8FF"/>
<path d="M81.9297 201V184.1H87.823C90.7986 184.1 92.958 184.843 94.3014 186.331C95.6447 187.805 96.3164 189.877 96.3164 192.55C96.3164 195.222 95.6447 197.302 94.3014 198.79C92.958 200.263 90.7986 201 87.823 201H81.9297ZM85.2664 198.378H87.6064C88.8052 198.378 89.7947 198.197 90.5747 197.836C91.3547 197.461 91.9325 196.847 92.308 195.995C92.698 195.142 92.893 193.994 92.893 192.55C92.893 191.105 92.698 189.957 92.308 189.105C91.9325 188.252 91.3547 187.646 90.5747 187.285C89.7947 186.909 88.8052 186.721 87.6064 186.721H85.2664V198.378Z" fill="#F7F8FF"/>
<path d="M75.8938 204.9C75.3305 204.062 74.8105 203.109 74.3338 202.04C73.8571 200.985 73.4671 199.83 73.1638 198.573C72.8749 197.302 72.7305 195.944 72.7305 194.5C72.7305 193.055 72.8749 191.705 73.1638 190.448C73.4671 189.177 73.8571 188.014 74.3338 186.96C74.8105 185.891 75.3305 184.937 75.8938 184.1H78.9705V184.23C78.3782 185.111 77.8366 186.093 77.3455 187.176C76.8544 188.245 76.4571 189.393 76.1538 190.621C75.8649 191.849 75.7205 193.142 75.7205 194.5C75.7205 195.857 75.8649 197.15 76.1538 198.378C76.4571 199.606 76.8544 200.754 77.3455 201.823C77.8366 202.906 78.3782 203.889 78.9705 204.77V204.9H75.8938Z" fill="#F7F8FF"/>
</svg>
